<svg width="22" height="15" viewBox="0 0 22 15" fill="none" xmlns="http://www.w3.org/2000/svg">
<path fill-rule="evenodd" clip-rule="evenodd" d="M7.72323 2.36713C7.03411 2.36713 6.37322 2.64088 5.88594 3.12816C5.39866 3.61544 5.12491 4.27634 5.12491 4.96546C5.12491 5.65458 5.39866 6.31547 5.88594 6.80275C6.37322 7.29003 7.03411 7.56378 7.72323 7.56378C8.41235 7.56378 9.07325 7.29003 9.56053 6.80275C10.0478 6.31547 10.3216 5.65458 10.3216 4.96546C10.3216 4.27634 10.0478 3.61544 9.56053 3.12816C9.07325 2.64088 8.41235 2.36713 7.72323 2.36713ZM3.17616 4.96546C3.17607 4.21178 3.36332 3.46989 3.72107 2.80653C4.07882 2.14317 4.59585 1.57914 5.22566 1.16516C5.85547 0.751191 6.5783 0.500259 7.32915 0.434938C8.07999 0.369618 8.8353 0.491958 9.52713 0.790955C10.219 1.08995 10.8256 1.55623 11.2926 2.14785C11.7595 2.73946 12.072 3.43787 12.2021 4.18024C12.3321 4.92261 12.2756 5.68567 12.0376 6.40079C11.7996 7.1159 11.3876 7.76064 10.8386 8.27702C11.8739 8.77926 12.7727 9.52379 13.4589 10.4474C14.1451 11.3711 14.5984 12.4466 14.7803 13.5828C14.8003 13.7092 14.7953 13.8384 14.7654 13.9628C14.7356 14.0873 14.6815 14.2047 14.6063 14.3082C14.531 14.4118 14.4362 14.4995 14.327 14.5664C14.2179 14.6333 14.0967 14.6781 13.9703 14.6981C13.8438 14.7182 13.7147 14.7131 13.5902 14.6833C13.4658 14.6534 13.3484 14.5993 13.2448 14.5241C13.1413 14.4489 13.0535 14.354 12.9866 14.2449C12.9197 14.1358 12.875 14.0145 12.8549 13.8881C12.6583 12.6687 12.0339 11.5591 11.0936 10.7582C10.1532 9.9573 8.95842 9.51745 7.72323 9.51745C6.48805 9.51745 5.29323 9.9573 4.35289 10.7582C3.41254 11.5591 2.78813 12.6687 2.59154 13.8881C2.57141 14.0145 2.52657 14.1357 2.4596 14.2448C2.39262 14.3539 2.30481 14.4488 2.20118 14.5239C2.09755 14.5991 1.98013 14.6531 1.85563 14.6829C1.73113 14.7126 1.60198 14.7176 1.47556 14.6975C1.34914 14.6774 1.22792 14.6325 1.11883 14.5655C1.00974 14.4986 0.914902 14.4107 0.839744 14.3071C0.764587 14.2035 0.710576 14.0861 0.680796 13.9616C0.651016 13.8371 0.646051 13.7079 0.666183 13.5815C0.8485 12.4458 1.30196 11.3708 1.98812 10.4476C2.67428 9.52444 3.57292 8.78032 4.60784 8.27832C4.15512 7.85355 3.79445 7.34033 3.54818 6.77047C3.30192 6.20061 3.17529 5.58625 3.17616 4.96546ZM14.8686 3.01671C14.6102 3.01671 14.3624 3.11937 14.1796 3.3021C13.9969 3.48483 13.8943 3.73267 13.8943 3.99109C13.8943 4.2495 13.9969 4.49734 14.1796 4.68007C14.3624 4.8628 14.6102 4.96546 14.8686 4.96546C15.3082 4.96548 15.7349 5.11412 16.0793 5.38723C16.4237 5.66034 16.6657 6.04188 16.7659 6.46987C16.8662 6.89786 16.8187 7.34717 16.6314 7.74482C16.444 8.14246 16.1277 8.46508 15.7339 8.66028C15.5714 8.74106 15.4348 8.86559 15.3393 9.01983C15.2438 9.17407 15.1933 9.35191 15.1934 9.53331V9.99062C15.1931 10.2095 15.2666 10.4221 15.4018 10.5941C15.5371 10.7662 15.7264 10.8876 15.9391 10.939C17.4981 11.3145 18.7479 12.498 19.2156 14.0206C19.2527 14.1435 19.3137 14.2578 19.3951 14.357C19.4765 14.4562 19.5767 14.5383 19.6899 14.5987C19.8031 14.6591 19.9272 14.6965 20.0549 14.7088C20.1826 14.7211 20.3115 14.7081 20.4342 14.6704C20.5569 14.6328 20.6709 14.5713 20.7698 14.4895C20.8686 14.4076 20.9503 14.3071 21.0102 14.1936C21.0701 14.0801 21.1069 13.9559 21.1187 13.8281C21.1304 13.7003 21.1168 13.5715 21.0786 13.449C20.8186 12.6053 20.3897 11.8233 19.8179 11.1506C19.2462 10.4779 18.5435 9.9285 17.7528 9.53591C18.2607 8.97719 18.5954 8.28297 18.7161 7.53761C18.8369 6.79226 18.7386 6.02787 18.4331 5.33735C18.1276 4.64683 17.6281 4.05991 16.9953 3.64794C16.3625 3.23597 15.6237 3.01667 14.8686 3.01671Z" fill="white"/>
</svg>
