<?xml version="1.0" standalone="no"?>
<!DOCTYPE svg PUBLIC "-//W3C//DTD SVG 20010904//EN"
 "http://www.w3.org/TR/2001/REC-SVG-20010904/DTD/svg10.dtd">
<svg version="1.0" xmlns="http://www.w3.org/2000/svg"
 width="1600.000000pt" height="1200.000000pt" viewBox="0 0 1600.000000 1200.000000"
 preserveAspectRatio="xMidYMid meet">

<g transform="translate(0.000000,1200.000000) scale(0.100000,-0.100000)"
fill="#000000" stroke="none">
<path d="M0 6000 l0 -6000 8000 0 8000 0 0 6000 0 6000 -8000 0 -8000 0 0
-6000z m5884 2950 c260 -50 566 -182 882 -378 124 -77 133 -81 165 -72 62 18
312 68 419 84 312 46 758 61 1065 36 185 -15 462 -56 631 -94 l146 -33 42 27
c378 240 714 386 1001 437 117 20 296 13 375 -14 l54 -20 38 -100 c154 -411
187 -808 99 -1178 l-19 -80 52 -70 c86 -115 110 -154 179 -285 147 -282 211
-537 223 -885 15 -429 -56 -891 -188 -1224 -44 -112 -133 -286 -195 -381 -164
-252 -409 -475 -689 -629 -234 -128 -592 -249 -881 -296 l-41 -6 33 -72 c46
-99 91 -255 111 -384 15 -95 16 -200 15 -873 -1 -421 -4 -766 -6 -769 -6 -5
-294 -88 -335 -96 l-35 -6 0 813 c0 726 -2 823 -17 903 -30 158 -79 282 -154
391 -28 41 -200 199 -381 351 l-26 21 44 6 c24 4 148 18 274 32 696 76 1086
198 1415 443 445 331 681 911 680 1671 -1 339 -67 616 -207 864 -70 124 -194
287 -281 369 l-30 29 29 65 c17 35 41 106 54 156 62 236 60 484 -6 760 l-31
127 -31 0 c-18 0 -63 -7 -102 -15 -235 -50 -586 -217 -909 -433 l-88 -59 -105
28 c-414 111 -906 164 -1312 141 -325 -19 -692 -77 -934 -147 l-79 -23 -116
78 c-213 140 -454 269 -643 344 -96 37 -298 87 -339 84 l-35 -3 -27 -104 c-31
-119 -58 -311 -58 -409 0 -166 39 -375 94 -506 l33 -79 -92 -107 c-233 -269
-359 -541 -407 -875 -17 -115 -16 -495 1 -635 16 -135 65 -384 95 -480 196
-629 613 -1001 1325 -1181 179 -45 389 -79 727 -117 l242 -27 -150 -130 c-242
-210 -307 -292 -362 -457 -21 -64 -56 -238 -56 -280 l0 -34 -142 -56 c-312
-123 -561 -153 -823 -98 -158 33 -286 92 -423 197 -105 81 -190 178 -300 343
-93 141 -177 236 -272 310 l-45 35 51 -57 c125 -139 222 -293 321 -513 74
-163 114 -225 193 -298 149 -138 331 -217 565 -246 195 -24 363 -11 664 49
107 22 196 39 197 37 7 -8 15 -1297 7 -1297 -15 0 -316 77 -345 89 l-28 11 0
370 0 371 -92 -8 c-152 -13 -413 -7 -518 11 -297 52 -535 170 -725 361 -115
114 -190 228 -264 397 -121 279 -238 429 -444 567 -102 68 -188 153 -223 221
-57 110 -29 246 64 317 79 60 142 77 282 77 106 0 140 -4 224 -28 271 -76 492
-252 689 -547 163 -246 316 -364 527 -405 106 -21 270 -14 385 16 126 34 124
32 155 140 15 52 41 128 59 169 17 41 28 78 24 81 -4 4 -75 22 -158 40 -521
113 -928 325 -1225 636 -393 413 -595 1010 -593 1759 0 363 42 586 160 865 52
121 156 302 237 410 39 52 55 81 51 95 -23 89 -46 234 -55 360 -17 218 10 454
76 683 23 78 99 290 107 299 2 2 37 12 78 22 101 27 247 27 383 1z"/>
</g>
</svg>
